<svg width="2932" height="1235" viewBox="0 0 2932 1235" fill="none" xmlns="http://www.w3.org/2000/svg">
<rect width="2932" height="1235" fill="#272425"/>
<path d="M96.0007 321.653L301.506 321.653L302.853 541.515L761.366 94L1049.07 94L521.497 627.562L649.854 750.197C649.854 750.197 604.71 867.411 507.011 900.611C509.369 900.611 302.853 706.496 302.853 706.496L302.853 1166.21L96.0007 1166.21L96.0007 321.653Z" fill="#EEEEEE"/>
<path d="M691.671 1090.32C691.671 1090.32 778.302 1040.18 832.532 937.866L1059 1166.21L765.341 1166.21L691.671 1090.32Z" fill="#EEEEEE"/>
<path d="M96 301.006L96 94L396.401 99.0001C396.401 99.0001 535.849 97.3334 642.031 171.002C642.367 171.002 486.454 322.34 486.454 322.34C486.454 322.34 442.099 303.673 377.92 301.006C373.216 301.006 96 301.006 96 301.006Z" fill="#F6AE22"/>
<path d="M670.427 518.284L822.905 362.052C822.905 362.052 919.541 572.052 862.027 797.946C862.027 797.946 830.261 940.313 715.902 1033.98C642.004 1097.9 514.27 1156.4 347.748 1166.21C344.738 1166.21 325.344 1166.21 325.344 1166.21L324.341 967.704C324.341 967.704 553.393 979.878 646.685 815.868C649.695 810.796 716.571 699.54 670.427 518.284Z" fill="#F6AE22"/>
<path fill-rule="evenodd" clip-rule="evenodd" d="M2832 669L2832 673.851L1146.74 673.851L1146.74 669L2832 669ZM2832 982.149L2832 987L1141 987L1141 982.149L2832 982.149Z" fill="#EEEEEE"/>
<path d="M1230.29 580.188L1230.82 521.991C1230.82 521.991 1271.87 529.466 1291.06 492.626C1291.59 492.626 1296.92 484.083 1299.06 463.794C1300.12 449.379 1299.06 445.108 1294.26 428.022C1294.79 428.556 1284.66 384.775 1220.16 392.25L1220.16 580.188L1146.59 580.188L1146.59 334.053L1254.28 334.053C1254.28 334.053 1342.24 329.782 1368.36 397.589C1368.36 397.589 1391.81 455.252 1365.69 513.448C1365.69 512.915 1341.7 588.196 1230.29 580.188Z" fill="#EEEEEE"/>
<path d="M2547.69 579.654L2547.69 551.357C2547.69 551.357 2564.75 552.958 2587.67 549.221C2601.53 545.484 2616.46 539.611 2627.12 523.593C2627.65 523.059 2642.58 506.508 2639.91 466.998C2638.85 447.243 2630.32 422.683 2607.39 414.141C2607.39 414.141 2595.13 402.929 2539.16 406.132L2538.63 579.654L2505.57 579.654L2505.57 377.301L2582.34 377.301C2582.34 377.301 2646.31 382.106 2660.7 417.878C2660.7 418.412 2671.37 426.955 2675.1 462.727C2677.23 477.677 2676.16 499.567 2665.5 523.593C2665.5 523.059 2640.45 586.595 2547.69 579.654Z" fill="#F6AE22"/>
<path d="M1421.66 377.834L1548 377.834L1548 425.886L1482.43 425.886L1482.43 455.252L1544.27 455.252L1543.74 503.304L1482.96 503.304L1482.96 533.203L1548 533.203L1548 580.721L1421.66 580.721L1421.66 377.834Z" fill="#EEEEEE"/>
<path d="M1597.34 425.886L1597.34 377.834L1758.33 377.834L1758.33 425.886L1669.31 533.203L1761 533.203L1761 580.721L1591.48 581.255L1591.48 533.203L1685.3 425.886L1597.34 425.886Z" fill="#EEEEEE"/>
<path d="M1804.82 377.834L1875.19 377.834L1897.58 444.04L1902.37 463.26L1907.17 440.836L1928.5 377.834L1993 377.834L1928.5 511.313L1928.5 581.255L1867.72 581.255L1867.72 511.313L1804.82 377.834Z" fill="#EEEEEE"/>
<path d="M2036.95 334.587L2076.93 334.587L2076.93 450.981L2167.02 334.587L2215.54 334.587L2119.05 453.116L2223 581.256L2169.16 581.256L2076.93 458.455L2076.93 581.255L2036.95 581.255L2036.95 334.587Z" fill="#F6AE22"/>
<path d="M2364.88 581.256C2359.55 581.256 2353.15 580.722 2347.29 579.654C2328.1 576.45 2324.9 574.849 2319.57 571.645C2317.44 570.577 2315.84 569.509 2313.17 568.442L2312.64 567.908C2301.44 561.501 2291.31 551.356 2283.85 539.61C2268.92 516.652 2263.59 487.821 2268.92 455.252C2272.12 436.565 2275.32 430.692 2279.59 421.081C2280.12 420.014 2280.65 418.946 2281.19 417.878C2283.32 414.141 2290.78 400.793 2308.37 387.979C2321.7 378.368 2343.02 371.427 2361.15 371.427C2361.68 371.427 2362.22 371.427 2362.75 371.427C2376.61 371.961 2388.87 371.961 2404.86 378.368C2428.32 387.979 2439.51 404.53 2439.51 404.53C2439.51 404.53 2455.51 420.548 2460.31 453.65C2464.04 473.939 2462.44 507.575 2446.98 535.873C2446.98 535.873 2438.45 552.958 2416.59 567.374C2407.53 573.781 2390.47 581.256 2364.88 581.256ZM2366.48 400.793C2346.22 400.793 2330.76 411.471 2330.23 411.471L2328.63 413.073C2309.44 428.022 2304.11 452.582 2303.04 462.727L2303.04 463.261C2298.78 491.024 2310.51 517.72 2310.51 517.72C2324.37 545.483 2346.76 551.356 2363.28 551.356C2372.34 551.356 2381.94 549.755 2390.47 546.551L2391 546.551C2396.87 543.882 2405.4 536.941 2407 535.339C2418.72 523.593 2422.99 507.575 2425.12 496.363C2427.25 484.083 2426.72 474.473 2426.19 473.939C2425.65 448.311 2418.19 432.828 2412.33 423.751C2405.93 414.141 2399.53 410.937 2399.53 410.937C2389.4 403.996 2378.21 400.793 2366.48 400.793Z" fill="#F6AE22"/>
<path d="M2719.52 377.3L2827.74 377.3L2827.74 405.598L2750.97 405.598L2750.97 462.726L2821.87 462.726L2821.87 492.626L2750.97 492.626L2750.97 551.89L2832 551.89L2832 580.187L2719.52 580.187L2719.52 377.3Z" fill="#F6AE22"/>
<path d="M1186.18 894H1156.21V760.963H1186.18V894ZM1366.94 785.362H1329V894H1298.94V785.362H1261.18V760.963H1366.94V785.362ZM1545.23 888.897V859.21C1550.61 863.725 1556.46 867.127 1562.77 869.415C1569.08 871.642 1575.45 872.755 1581.88 872.755C1585.65 872.755 1588.93 872.415 1591.71 871.734C1594.56 871.054 1596.91 870.126 1598.76 868.951C1600.68 867.714 1602.1 866.292 1603.03 864.684C1603.96 863.014 1604.42 861.22 1604.42 859.303C1604.42 856.705 1603.68 854.386 1602.2 852.345C1600.71 850.304 1598.67 848.417 1596.07 846.686C1593.54 844.954 1590.51 843.284 1586.98 841.676C1583.46 840.068 1579.65 838.429 1575.57 836.759C1565.18 832.429 1557.42 827.141 1552.28 820.895C1547.21 814.648 1544.68 807.102 1544.68 798.258C1544.68 791.331 1546.07 785.393 1548.85 780.445C1551.63 775.436 1555.41 771.323 1560.17 768.106C1564.99 764.89 1570.56 762.54 1576.87 761.056C1583.18 759.509 1589.86 758.736 1596.91 758.736C1603.83 758.736 1609.96 759.169 1615.28 760.035C1620.66 760.839 1625.61 762.107 1630.12 763.839V791.578C1627.89 790.032 1625.45 788.671 1622.79 787.496C1620.19 786.321 1617.5 785.362 1614.72 784.62C1611.94 783.816 1609.15 783.229 1606.37 782.857C1603.65 782.486 1601.05 782.301 1598.58 782.301C1595.18 782.301 1592.08 782.641 1589.3 783.321C1586.52 783.94 1584.17 784.837 1582.25 786.012C1580.33 787.187 1578.85 788.609 1577.8 790.279C1576.74 791.887 1576.22 793.712 1576.22 795.753C1576.22 797.979 1576.81 799.99 1577.98 801.783C1579.16 803.515 1580.83 805.185 1582.99 806.793C1585.16 808.339 1587.78 809.885 1590.88 811.432C1593.97 812.916 1597.46 814.462 1601.36 816.07C1606.68 818.297 1611.44 820.678 1615.65 823.214C1619.92 825.688 1623.56 828.502 1626.59 831.656C1629.63 834.811 1631.94 838.429 1633.55 842.511C1635.16 846.531 1635.96 851.231 1635.96 856.612C1635.96 864.034 1634.54 870.281 1631.7 875.353C1628.91 880.362 1625.11 884.444 1620.29 887.599C1615.46 890.691 1609.83 892.918 1603.4 894.278C1597.03 895.639 1590.29 896.319 1583.18 896.319C1575.88 896.319 1568.92 895.701 1562.3 894.464C1555.75 893.227 1550.06 891.371 1545.23 888.897ZM1757.26 896.319C1741.42 896.319 1728.96 891.897 1719.87 883.053C1710.84 874.146 1706.32 862.086 1706.32 846.871C1706.32 831.161 1711.02 818.884 1720.43 810.04C1729.83 801.134 1742.54 796.681 1758.56 796.681C1774.33 796.681 1786.7 801.134 1795.67 810.04C1804.63 818.884 1809.12 830.605 1809.12 845.201C1809.12 860.973 1804.48 873.435 1795.2 882.589C1785.99 891.743 1773.34 896.319 1757.26 896.319ZM1758 819.132C1751.07 819.132 1745.69 821.513 1741.86 826.275C1738.02 831.038 1736.1 837.779 1736.1 846.5C1736.1 864.745 1743.46 873.868 1758.18 873.868C1772.22 873.868 1779.24 864.498 1779.24 845.758C1779.24 828.007 1772.16 819.132 1758 819.132ZM1914.45 894H1885.14V753.355H1914.45V894ZM2086.4 894H2057.17V879.527H2056.71C2049.47 890.722 2039.8 896.319 2027.67 896.319C2005.65 896.319 1994.65 882.991 1994.65 856.334V799H2023.87V853.736C2023.87 867.158 2029.19 873.868 2039.83 873.868C2045.08 873.868 2049.29 872.044 2052.44 868.395C2055.6 864.684 2057.17 859.674 2057.17 853.365V799H2086.4V894ZM2225.6 892.887C2221.27 895.175 2214.74 896.319 2206.02 896.319C2185.36 896.319 2175.03 885.589 2175.03 864.127V820.616H2159.63V799H2175.03V778.497L2204.26 770.147V799H2225.6V820.616H2204.26V859.024C2204.26 868.92 2208.19 873.868 2216.04 873.868C2219.13 873.868 2222.32 872.971 2225.6 871.178V892.887ZM2314.05 783.971C2309.1 783.971 2305.05 782.517 2301.89 779.61C2298.74 776.642 2297.16 773.023 2297.16 768.756C2297.16 764.365 2298.74 760.777 2301.89 757.994C2305.05 755.211 2309.1 753.819 2314.05 753.819C2319.06 753.819 2323.11 755.211 2326.2 757.994C2329.35 760.777 2330.93 764.365 2330.93 768.756C2330.93 773.209 2329.35 776.858 2326.2 779.703C2323.11 782.548 2319.06 783.971 2314.05 783.971ZM2328.52 894H2299.2V799H2328.52V894ZM2455.47 896.319C2439.64 896.319 2427.17 891.897 2418.08 883.053C2409.05 874.146 2404.54 862.086 2404.54 846.871C2404.54 831.161 2409.24 818.884 2418.64 810.04C2428.04 801.134 2440.75 796.681 2456.77 796.681C2472.54 796.681 2484.91 801.134 2493.88 810.04C2502.85 818.884 2507.33 830.605 2507.33 845.201C2507.33 860.973 2502.69 873.435 2493.41 882.589C2484.2 891.743 2471.55 896.319 2455.47 896.319ZM2456.21 819.132C2449.28 819.132 2443.9 821.513 2440.07 826.275C2436.23 831.038 2434.32 837.779 2434.32 846.5C2434.32 864.745 2441.68 873.868 2456.4 873.868C2470.44 873.868 2477.46 864.498 2477.46 845.758C2477.46 828.007 2470.38 819.132 2456.21 819.132ZM2675.1 894H2645.88V841.212C2645.88 826.492 2640.62 819.132 2630.11 819.132C2625.03 819.132 2620.86 821.08 2617.58 824.977C2614.3 828.873 2612.67 833.821 2612.67 839.82V894H2583.35V799H2612.67V814.029H2613.04C2620.03 802.464 2630.2 796.681 2643.56 796.681C2664.59 796.681 2675.1 809.731 2675.1 835.831V894ZM2749.17 891.495V867.745C2754 870.652 2758.79 872.817 2763.55 874.239C2768.38 875.662 2772.92 876.373 2777.19 876.373C2782.38 876.373 2786.47 875.662 2789.44 874.239C2792.47 872.817 2793.98 870.652 2793.98 867.745C2793.98 865.89 2793.3 864.343 2791.94 863.106C2790.58 861.869 2788.82 860.787 2786.65 859.859C2784.55 858.932 2782.23 858.097 2779.69 857.354C2777.16 856.612 2774.72 855.777 2772.37 854.85C2768.59 853.427 2765.25 851.912 2762.35 850.304C2759.5 848.634 2757.09 846.716 2755.11 844.552C2753.19 842.387 2751.71 839.882 2750.66 837.037C2749.67 834.192 2749.17 830.821 2749.17 826.925C2749.17 821.606 2750.32 817.029 2752.6 813.194C2754.95 809.36 2758.05 806.236 2761.88 803.824C2765.78 801.35 2770.2 799.557 2775.15 798.443C2780.16 797.268 2785.35 796.681 2790.73 796.681C2794.94 796.681 2799.21 797.021 2803.54 797.701C2807.87 798.32 2812.13 799.247 2816.34 800.484V823.121C2812.63 820.956 2808.64 819.348 2804.37 818.297C2800.17 817.184 2796.02 816.627 2791.94 816.627C2790.02 816.627 2788.2 816.812 2786.47 817.184C2784.8 817.493 2783.31 817.988 2782.01 818.668C2780.71 819.286 2779.69 820.121 2778.95 821.173C2778.21 822.162 2777.84 823.307 2777.84 824.605C2777.84 826.337 2778.4 827.822 2779.51 829.059C2780.62 830.296 2782.08 831.378 2783.87 832.306C2785.66 833.172 2787.64 833.976 2789.81 834.718C2792.03 835.398 2794.23 836.109 2796.39 836.852C2800.29 838.212 2803.82 839.697 2806.97 841.305C2810.12 842.913 2812.81 844.799 2815.04 846.964C2817.33 849.129 2819.06 851.664 2820.24 854.571C2821.47 857.478 2822.09 860.942 2822.09 864.962C2822.09 870.59 2820.85 875.414 2818.38 879.435C2815.97 883.393 2812.72 886.64 2808.64 889.176C2804.62 891.65 2799.95 893.443 2794.63 894.557C2789.37 895.732 2783.9 896.319 2778.21 896.319C2767.76 896.319 2758.08 894.711 2749.17 891.495Z" fill="white"/>
</svg>
