<?xml version="1.0" encoding="utf-8"?>
<!-- Generator: Adobe Illustrator 25.2.1, SVG Export Plug-In . SVG Version: 6.00 Build 0)  -->
<svg version="1.1" id="Layer_1" xmlns="http://www.w3.org/2000/svg" xmlns:xlink="http://www.w3.org/1999/xlink" x="0px" y="0px"
	 viewBox="0 0 1827 1862" style="enable-background:new 0 0 1827 1862;" xml:space="preserve">
<style type="text/css">
	.st0{fill:#272425;}
	.st1{fill:#EEEEEE;}
	.st2{fill:#F6AE22;}
</style>
<rect class="st0" width="1827" height="1862"/>
<g>
	<path class="st1" d="M200.1,474.1h304.5l2,325.8L1186,136.8h426.3L830.5,927.3l190.2,181.7c0,0-66.9,173.7-211.7,222.9
		c3.5,0-302.5-287.6-302.5-287.6v681.2H200.1V474.1z"/>
	<path class="st1" d="M1082.7,1613c0,0,128.4-74.3,208.7-225.9l335.6,338.3h-435.1L1082.7,1613z"/>
	<path class="st2" d="M200.1,443.5V136.8l445.1,7.4c0,0,206.6-2.5,364,106.7c0.5,0-230.5,224.2-230.5,224.2s-65.7-27.7-160.8-31.6
		C610.8,443.5,200.1,443.5,200.1,443.5z"/>
	<path class="st2" d="M1051.2,765.4l225.9-231.5c0,0,143.2,311.2,58,645.9c0,0-47.1,210.9-216.5,349.7
		c-109.5,94.7-298.8,181.4-545.5,195.9c-4.5,0-33.2,0-33.2,0l-1.5-294.1c0,0,339.4,18,477.6-225
		C1020.5,1198.8,1119.6,1034,1051.2,765.4z"/>
</g>
</svg>
