<svg width="24" height="24" viewBox="0 0 24 24" fill="none" xmlns="http://www.w3.org/2000/svg">
<path d="M21 21.9987H3C3 21.9987 3 22.0402 3 21.6412C3.13005 20.4735 3.61112 19.3627 4.38884 18.4342C5.16655 17.5058 6.20993 16.7968 7.40101 16.3874C7.7367 16.2864 8.0645 16.1642 8.38204 16.0216C8.85004 15.7889 9.28203 15.5145 9.72303 15.2734C9.72303 15.6558 10.092 15.7556 10.47 15.8803C11.5734 16.228 12.7778 16.1806 13.845 15.7473C14.0257 15.6483 14.187 15.5218 14.322 15.3732C15.222 15.739 16.122 16.0964 17.022 16.4872C17.9268 16.8523 18.7312 17.4004 19.3761 18.091C20.021 18.7816 20.4898 19.5971 20.748 20.4774C20.8703 20.9094 20.9398 21.3528 20.955 21.7992M12.018 21.9987L14.817 16.1796L14.691 16.1131C13.8485 16.4868 12.9257 16.6808 11.991 16.6808C11.0564 16.6808 10.1336 16.4868 9.29105 16.1131L9.192 16.2128" fill="#F6AE22"/>
<path d="M17.247 7.95814C17.2422 9.72237 16.7028 11.4501 15.69 12.9459C15.0882 13.9074 14.1287 14.6342 12.99 14.991C11.235 15.4565 9.84003 14.7914 8.71503 13.5279C7.57594 12.1844 6.89598 10.5579 6.76199 8.85593C6.53263 7.70301 6.59424 6.51678 6.942 5.38942C7.24937 4.29224 7.99156 3.34166 9.0216 2.72585C10.0516 2.11005 11.2944 1.87392 12.504 2.06422C15.546 2.33855 17.481 4.83245 17.247 7.95814ZM7.34701 8.98894C7.40665 9.99494 7.71116 10.9756 8.23784 11.8579C8.76451 12.7401 9.4998 13.5013 10.389 14.0848C10.9227 14.4424 11.5752 14.6159 12.233 14.5748C12.8908 14.5338 13.5122 14.281 13.989 13.8603C14.8803 13.1796 15.5707 12.3017 15.996 11.3083C16.3574 10.5386 16.5531 9.71132 16.572 8.87257L16.095 8.97232C16.212 7.46767 15.78 6.23735 14.394 5.57231C13.8433 5.99126 13.2663 6.37987 12.666 6.73613C11.4424 7.32904 10.0209 7.47163 8.688 7.13516C8.337 7.06865 8.15703 7.13514 8.10303 7.47597C8.02203 7.97475 7.94102 8.46521 7.86002 8.98062L7.34701 8.98894Z" fill="#F6AE22"/>
</svg>
