<?xml version="1.0" encoding="utf-8"?>
<!-- Generator: Adobe Illustrator 25.2.1, SVG Export Plug-In . SVG Version: 6.00 Build 0)  -->
<svg version="1.1" id="Layer_1" xmlns="http://www.w3.org/2000/svg" xmlns:xlink="http://www.w3.org/1999/xlink" x="0px" y="0px"
	 viewBox="0 0 116.7 122.9" style="enable-background:new 0 0 116.7 122.9;" xml:space="preserve">
<g>
	<path d="M4.4,95c1.1-4.8,1.8-5.9,4.4-10.1c3.2-5.2,7.3-9.4,13.5-10.7c3.1-0.7,6.2-0.9,9.4-1.3c2-0.2,4.1-0.4,6.1-0.5
		c3.8,7.2,9.8,12.9,15.3,19.3c0.2-0.8,0.4-1.4,0.5-2c0.6-2.3,1.2-4.6,1.7-7c0.1-0.4,0-1-0.3-1.2c-1.4-1.5-1.7-3.3-1.7-5.2
		c3.3,0,6.4,0,9.6,0c0,2-0.3,3.9-1.8,5.3c-0.2,0.2-0.4,0.6-0.3,0.9c0.7,3,1.5,5.9,2.4,9.2c5.5-6.3,11.3-12.1,15.4-19.5
		c4.9,0.6,10,1,15.1,1.9c5.3,0.9,9.2,4.2,12.2,8.4c3.2,4.4,5.4,9.4,6.5,14.7c1,4.4,2.6,22.6-1.1,25.4c0.3,0.4-106.6,0-106.7,0
		c-2.9-1.6-1-13.6-1.4-17c0-0.3,0.2-4.3,0.1-4.5C3.3,100.5,4.4,95.7,4.4,95z"/>
	<path d="M58.2,1.3c5.2,0,13.4,2.4,14.4,6.6c5-1,11.7,7.3,13,15.5c0.4,2.7,0.3,5.5,0.5,8.2c0,0.5,0.4,1,0.5,1.4
		c0.5,1.3,1.2,2.7,1.3,4c0.3,3.4-0.4,6.6-1.9,9.6c-0.5,1-1.5,1.7-2.2,2.6c-0.3,0.4-0.6,0.8-0.8,1.3c-2.3,5.7-5.4,11-9.9,15.3
		c-1.5,1.4-3.1,2.7-4.8,3.8C61.5,74,54.7,74,48,69.7c-5.7-3.6-9.6-8.9-12.7-14.8c-0.4-0.7-0.7-1.4-1-2.2c-0.7-1.6-1.5-3.1-2.8-4.5
		c-2.3-2.3-2.8-5.6-3.1-8.8c-0.1-1.3,0.1-2.7,0.2-4.1c0.1-0.7,0.3-1.5,0.7-1.9c1.2-1,0.9-2.2,0.9-3.4c-0.1-4.4,0.4-8.8,2.1-12.9
		c3.8-9.5,11-14.5,21-15.7C55,1.4,56.6,1.4,58.2,1.3z M75.7,28.9C74,28,72.6,27.2,71,26.7c-1.3-0.4-2.9-0.9-4.2-0.6
		c-6.5,1.5-12.8,1.4-19.2-0.6c-2.7-0.9-5.1-0.2-7.2,1.8c-1.8,1.8-3.1,3.8-3.9,6.2c-0.3,0.9-0.6,1.8-0.9,2.7c-1.7-0.1-2.2,0.3-2.5,2
		c-0.4,2.8,0.1,5.5,1.4,8c0.5,1,1.3,1.7,2.6,1.4c0.3,0.9,0.6,1.7,1,2.5c2.4,5.7,5.6,10.8,10.7,14.5c6,4.4,12.6,4.3,18.5-0.1
		c4.5-3.3,7.6-7.9,9.9-12.9c0.6-1.3,1.1-2.6,1.6-4c1.3,0.3,2.1-0.5,2.6-1.5c1.3-2.4,1.8-5,1.5-7.7c-0.2-1.9-0.8-2.3-2.7-2.2
		c-0.6-3.8-2.2-7.1-5.4-9.8C75.2,27.4,75.4,28,75.7,28.9z"/>
	<path d="M75.7,28.9c-0.3-0.9-0.5-1.5-0.8-2.3c3.2,2.7,4.8,6,5.4,9.8c1.9-0.2,2.5,0.2,2.7,2.2c0.3,2.7-0.1,5.3-1.5,7.7
		c-0.5,1-1.3,1.8-2.6,1.5c-0.6,1.3-1.1,2.7-1.6,4c-2.3,5-5.4,9.6-9.9,12.9C61.5,68.9,55,69,49,64.6c-5.1-3.7-8.3-8.8-10.7-14.5
		c-0.3-0.8-0.6-1.6-1-2.5c-1.3,0.3-2.1-0.4-2.6-1.4c-1.4-2.5-1.9-5.2-1.4-8c0.3-1.7,0.8-2.1,2.5-2c0.3-0.9,0.6-1.8,0.9-2.7
		c0.8-2.4,2.1-4.5,3.9-6.2c2-2,4.4-2.7,7.2-1.8c6.3,2,12.7,2.1,19.2,0.6c1.3-0.3,2.8,0.2,4.2,0.6C72.6,27.2,74,28,75.7,28.9z"/>
</g>
</svg>
