<?xml version="1.0" encoding="utf-8"?>
<!-- Generator: Adobe Illustrator 25.2.1, SVG Export Plug-In . SVG Version: 6.00 Build 0)  -->
<svg version="1.1" id="Layer_1" xmlns="http://www.w3.org/2000/svg" xmlns:xlink="http://www.w3.org/1999/xlink" x="0px" y="0px"
	 viewBox="0 0 116.7 122.9" style="enable-background:new 0 0 116.7 122.9;" xml:space="preserve">
<style type="text/css">
	.st0{fill-rule:evenodd;clip-rule:evenodd;}
</style>
<path class="st0" d="M27.8,71.9c-3.8-1.1-7.1-3.2-9.8-6.1c6.5-2.5,9.5-10.2,9.9-21.7c0.3-8.6-1.5-15.7,1.5-24.1
	c5.8-16.8,27.1-22.5,39-12.7c9.3-1,18.7,3.8,20.7,18.3c1.5,10.8-1.7,21.9,1.7,31.9c1.2,4.1,4.1,7.5,7.9,9.4c-2.5,2.4-6.2,4-10.6,5.1
	c-3.4,0.8-9.6,1.5-16.7,1.9v5l7,9.4l-20,16L38.4,88.3l5.3-9v-5.4C36.8,73.6,30.9,72.9,27.8,71.9L27.8,71.9z M87.9,96.2
	c-3-6-6.9-11.6-11.6-16.5c8.6,3.3,18.8,6.6,25.3,10.8c4.1,2.6,6.3,4.6,7.9,7.7c4.1,7.8,3.5,16.4,5.7,24.7H1.4
	C3.6,114.7,3,106,7.2,98.3c1.7-3.2,3.8-5.2,7.9-7.8c6.5-4.1,16.7-7.4,25.3-10.8c-4.6,4.9-8.5,10.5-11.6,16.5l8.9-0.2l20.1,16.1
	L78.9,96C78.9,96,87.9,96.2,87.9,96.2z"/>
</svg>
